<?xml version="1.0" encoding="UTF-8"?>
<svg xmlns="http://www.w3.org/2000/svg" xmlns:xlink="http://www.w3.org/1999/xlink" width="120px" height="120px" viewBox="0 0 120 120" version="1.1">
<g id="surface1">
<path style=" stroke:none;fill-rule:nonzero;fill:rgb(0%,0%,0%);fill-opacity:1;" d="M 0.0703125 23.808594 L 0.171875 47.648438 L 2.890625 47.683594 C 4.371094 47.71875 6.160156 47.582031 6.847656 47.410156 C 9.015625 46.824219 11.800781 45.34375 12.902344 44.207031 C 15.378906 41.59375 16.375 40.355469 16.824219 39.390625 C 17.0625 38.808594 17.476562 37.878906 17.753906 37.328125 C 18.441406 35.847656 18.679688 32.097656 18.234375 30.101562 C 18.027344 29.140625 17.753906 27.589844 17.648438 26.59375 C 17.511719 25.253906 17.304688 24.804688 16.824219 24.667969 C 15.34375 24.289062 16.339844 23.910156 19.09375 23.808594 C 20.984375 23.773438 22.019531 23.875 22.019531 24.082031 C 22.019531 24.289062 22.191406 24.359375 22.398438 24.253906 C 22.773438 24.015625 23.257812 23.945312 26.902344 23.53125 C 28.863281 23.359375 29.242188 23.222656 29.347656 22.570312 C 29.414062 22.191406 29.519531 22.636719 29.554688 23.601562 C 29.585938 25.082031 29.414062 25.5625 28.484375 26.765625 C 27.867188 27.558594 27.246094 28.210938 27.109375 28.210938 C 26.972656 28.210938 26.835938 28.382812 26.835938 28.554688 C 26.835938 29.140625 25.320312 31.308594 24.941406 31.238281 C 24.769531 31.203125 24.21875 31.308594 23.773438 31.445312 C 23.152344 31.652344 23.050781 31.789062 23.429688 32.03125 C 23.808594 32.269531 23.738281 32.375 23.1875 32.546875 C 22.5 32.71875 22.464844 32.820312 22.914062 33.648438 C 23.464844 34.714844 23.53125 36.019531 23.085938 36.191406 C 22.570312 36.363281 21.675781 43.109375 21.675781 46.753906 C 21.675781 56.214844 25.011719 63.40625 30.722656 66.433594 C 32.683594 67.464844 38.667969 69.496094 40.492188 69.734375 C 41.320312 69.839844 42.074219 70.082031 42.179688 70.21875 C 42.28125 70.390625 43.246094 70.527344 44.3125 70.527344 C 48.335938 70.527344 48.679688 71.148438 46.136719 73.589844 C 45.207031 74.484375 43.96875 76.203125 43.3125 77.410156 C 42.246094 79.542969 42.179688 79.851562 42.042969 84.359375 C 41.9375 87.523438 41.765625 89.003906 41.523438 88.863281 C 41.320312 88.761719 34.195312 88.660156 25.664062 88.691406 C 17.132812 88.726562 8.601562 88.625 6.707031 88.484375 C 4.816406 88.3125 2.546875 88.28125 1.652344 88.347656 L 0 88.484375 L 0 120.070312 L 120.070312 120.070312 L 120.070312 0 L 0 0 Z M 70.082031 39.875 C 70.355469 40.113281 70.664062 40.253906 70.769531 40.113281 C 70.90625 40.011719 70.804688 39.703125 70.597656 39.496094 C 70.355469 39.253906 70.183594 38.910156 70.183594 38.703125 C 70.183594 38.53125 70.527344 38.738281 70.90625 39.21875 C 71.59375 40.046875 71.59375 40.046875 71.386719 39.289062 C 71.25 38.875 71.320312 38.53125 71.492188 38.53125 C 71.695312 38.53125 71.9375 38.945312 72.042969 39.425781 C 72.179688 39.941406 72.386719 40.253906 72.488281 40.113281 C 72.589844 40.011719 72.902344 40.082031 73.175781 40.285156 C 73.691406 40.734375 73.761719 40.148438 73.28125 39.046875 C 73.003906 38.394531 72.96875 38.394531 72.96875 39.015625 C 72.9375 39.390625 72.832031 39.597656 72.730469 39.460938 C 72.589844 39.359375 72.625 38.980469 72.730469 38.636719 C 72.96875 38.050781 73.003906 38.050781 73.484375 38.667969 C 73.761719 39.046875 73.96875 39.734375 73.96875 40.21875 C 73.96875 40.941406 74.035156 41.007812 74.3125 40.597656 C 74.585938 40.183594 74.65625 40.183594 74.691406 40.769531 C 74.691406 41.179688 74.898438 40.871094 75.171875 40.082031 L 75.621094 38.703125 L 75.445312 40.664062 C 75.308594 42.144531 75.378906 42.867188 75.824219 43.484375 C 76.136719 43.96875 76.375 44.65625 76.375 45.035156 C 76.375 45.894531 76.925781 46.273438 77.203125 45.550781 C 77.511719 44.726562 77.410156 44.105469 77.0625 44.898438 C 76.789062 45.550781 76.753906 45.550781 76.753906 44.792969 C 76.71875 44.378906 76.890625 44.035156 77.097656 44.035156 C 77.339844 44.035156 77.441406 43.453125 77.375 42.523438 C 77.304688 41.695312 77.339844 41.078125 77.511719 41.179688 C 77.648438 41.25 77.785156 41.972656 77.820312 42.765625 L 77.855469 44.207031 L 78.097656 42.660156 L 78.335938 41.113281 L 78.371094 42.730469 C 78.441406 44.863281 78.992188 45.136719 79.09375 43.109375 C 79.164062 40.664062 79.542969 40.628906 80.332031 42.902344 C 80.640625 43.796875 80.675781 44.347656 80.4375 44.65625 C 80.160156 44.964844 80.296875 45.242188 80.882812 45.722656 C 81.605469 46.273438 81.707031 46.582031 81.605469 48.476562 C 81.433594 51.191406 80.847656 51.226562 80.847656 48.507812 C 80.847656 47.375 80.710938 46.445312 80.503906 46.445312 C 80.332031 46.445312 80.160156 47.097656 80.160156 47.890625 C 80.160156 48.714844 79.988281 49.609375 79.816406 49.886719 C 79.609375 50.230469 79.472656 50.265625 79.472656 49.953125 C 79.472656 49.746094 79.265625 49.542969 78.992188 49.542969 C 78.371094 49.542969 77.957031 47.339844 78.441406 46.480469 C 78.886719 45.585938 78.886719 45.414062 78.335938 45.414062 C 77.855469 45.414062 76.71875 47.820312 76.71875 48.851562 C 76.71875 49.230469 76.890625 49.542969 77.0625 49.542969 C 77.269531 49.542969 77.410156 49.714844 77.410156 49.917969 C 77.410156 50.089844 77.234375 50.160156 76.996094 50.023438 C 76.71875 49.851562 76.6875 50.023438 76.789062 50.503906 C 76.925781 50.984375 76.859375 51.191406 76.617188 51.019531 C 76.410156 50.882812 76.339844 51.089844 76.445312 51.535156 C 76.582031 51.949219 76.515625 52.226562 76.339844 52.085938 C 76.167969 51.984375 76.03125 52.121094 76.03125 52.363281 C 76.03125 53.085938 74.070312 55.835938 73.210938 56.320312 C 72.765625 56.558594 72.144531 56.730469 71.800781 56.765625 C 71.148438 56.765625 67.945312 53.738281 68.257812 53.429688 C 68.359375 53.324219 68.738281 53.566406 69.082031 53.980469 C 69.460938 54.460938 70.148438 54.804688 70.871094 54.839844 C 71.835938 54.910156 72.28125 54.667969 73.484375 53.464844 C 74.65625 52.328125 75 51.640625 75.34375 50.058594 C 75.964844 47.132812 75.550781 44.621094 74.207031 43.109375 C 73.210938 41.972656 73.039062 41.902344 71.457031 42.074219 C 70.046875 42.179688 69.5625 42.453125 68.601562 43.484375 C 67.945312 44.207031 67.429688 45.101562 67.398438 45.515625 C 67.398438 46.238281 67.363281 46.238281 67.054688 45.585938 C 66.847656 45.101562 66.777344 45.445312 66.878906 46.789062 C 66.949219 47.820312 66.914062 48.476562 66.847656 48.199219 C 66.675781 47.820312 66.605469 47.820312 66.332031 48.199219 C 66.089844 48.542969 66.054688 48.476562 66.226562 47.992188 C 66.640625 46.925781 66.433594 45.035156 65.882812 44.484375 C 65.609375 44.207031 65.367188 43.796875 65.367188 43.589844 C 65.367188 43.3125 65.46875 43.347656 65.675781 43.660156 C 66.125 44.347656 66.535156 42.214844 66.226562 40.699219 C 66.089844 39.976562 66.160156 39.5625 66.332031 39.703125 C 66.503906 39.804688 66.742188 40.390625 66.878906 40.976562 C 67.054688 41.902344 67.121094 41.972656 67.601562 41.523438 C 67.878906 41.214844 68.152344 40.5625 68.152344 40.011719 C 68.222656 39.1875 68.222656 39.152344 68.359375 39.839844 C 68.464844 40.285156 68.703125 40.5625 68.910156 40.492188 C 69.359375 40.355469 69.359375 39.804688 68.980469 38.703125 L 68.738281 38.015625 L 69.1875 38.703125 C 69.425781 39.082031 69.839844 39.597656 70.082031 39.875 Z M 40.113281 39.910156 C 41.25 40.355469 42.214844 41.421875 42.902344 43.003906 C 43.863281 45.242188 42.902344 52.328125 41.558594 52.914062 C 41.386719 52.980469 41.285156 53.222656 41.285156 53.496094 C 41.285156 53.738281 41.042969 54.117188 40.769531 54.359375 C 40.355469 54.703125 40.253906 54.703125 40.253906 54.21875 C 40.253906 53.910156 40.113281 53.667969 39.910156 53.667969 C 39.734375 53.667969 40.046875 53.015625 40.628906 52.191406 C 41.421875 51.054688 41.765625 50.089844 42.007812 48.097656 C 42.453125 44.863281 42.042969 43.074219 40.5625 41.835938 C 39.253906 40.734375 38.601562 40.699219 37.054688 41.765625 C 35.953125 42.523438 35.8125 42.558594 35.882812 41.972656 C 35.917969 41.628906 36.054688 41.421875 36.226562 41.523438 C 36.363281 41.628906 36.46875 41.457031 36.398438 41.179688 C 36.261719 40.492188 37.429688 39.597656 38.429688 39.5625 C 38.839844 39.5625 39.597656 39.734375 40.113281 39.910156 Z M 95.746094 52.878906 C 95.984375 52.808594 96.605469 52.945312 97.15625 53.257812 C 98.121094 53.738281 98.152344 53.773438 97.535156 54.21875 C 97.191406 54.496094 96.742188 54.703125 96.570312 54.703125 C 96.433594 54.703125 96.398438 54.875 96.503906 55.046875 C 96.640625 55.253906 96.8125 55.320312 96.949219 55.253906 C 97.085938 55.183594 97.191406 56.421875 97.191406 58.039062 C 97.191406 60.792969 97.257812 60.996094 98.152344 61.753906 C 98.667969 62.203125 99.082031 62.753906 99.082031 62.957031 C 99.082031 63.128906 99.253906 63.304688 99.425781 63.304688 C 99.632812 63.304688 99.769531 64.917969 99.769531 67.429688 L 99.769531 71.558594 L 98.53125 71.558594 C 97.878906 71.558594 97.398438 71.695312 97.5 71.871094 C 97.601562 72.007812 96.742188 72.351562 95.539062 72.558594 C 92.582031 73.140625 91.890625 73.484375 91.515625 74.484375 C 91.339844 74.964844 91.03125 75.34375 90.824219 75.34375 C 90.652344 75.34375 90.480469 75.480469 90.480469 75.6875 C 90.480469 75.859375 90.757812 75.894531 91.101562 75.792969 C 91.617188 75.585938 91.617188 75.621094 91.03125 76.203125 C 90.378906 76.859375 90.378906 76.859375 89.863281 76.101562 C 89.585938 75.6875 89.070312 75.34375 88.660156 75.34375 C 87.902344 75.34375 85.664062 76.617188 85.664062 77.0625 C 85.664062 77.339844 84.597656 77.753906 83.601562 77.925781 C 83.324219 77.957031 82.292969 78.164062 81.332031 78.371094 C 79.300781 78.820312 76.582031 78.476562 72.796875 77.339844 C 70.699219 76.71875 70.148438 76.339844 67.742188 73.933594 L 65.058594 71.25 L 67.363281 71.078125 C 71.148438 70.734375 76.652344 69.804688 79.230469 69.117188 C 84.253906 67.707031 89.035156 64.679688 90.894531 61.652344 C 91.652344 60.414062 91.652344 60.414062 91.925781 61.238281 C 92.132812 61.925781 92.167969 61.859375 92.03125 60.964844 C 91.859375 59.828125 92.890625 57.558594 93.371094 58.039062 C 93.507812 58.175781 93.507812 58.039062 93.40625 57.730469 C 93.269531 57.417969 93.441406 56.695312 93.714844 56.113281 C 94.023438 55.5625 94.265625 54.804688 94.265625 54.425781 C 94.265625 53.496094 95.089844 51.847656 95.230469 52.5 C 95.296875 52.773438 95.539062 52.945312 95.746094 52.878906 Z M 56.972656 75.757812 C 57.867188 77.511719 58.484375 81.332031 58.484375 85.320312 L 58.484375 88.933594 L 56.628906 88.832031 L 54.804688 88.691406 L 54.632812 85.390625 C 54.425781 81.535156 54.769531 78.097656 55.597656 76.066406 C 55.90625 75.308594 56.214844 74.65625 56.285156 74.65625 C 56.351562 74.65625 56.664062 75.171875 56.972656 75.757812 Z M 92.410156 79.09375 C 92.992188 78.613281 93.0625 79.164062 92.511719 79.714844 C 92.203125 80.023438 92.648438 80.230469 94.230469 80.539062 C 95.4375 80.746094 96.296875 81.089844 96.226562 81.296875 C 96.089844 81.742188 93.164062 82.570312 91.753906 82.570312 C 91.167969 82.570312 90.515625 82.914062 90.035156 83.464844 C 89.3125 84.289062 88.074219 84.359375 88.074219 83.566406 C 88.074219 83.394531 87.902344 83.257812 87.660156 83.257812 C 87.351562 83.257812 87.351562 83.359375 87.660156 83.667969 C 88.246094 84.253906 88.175781 84.804688 87.558594 84.289062 C 87.246094 84.046875 86.457031 83.808594 85.769531 83.738281 C 85.011719 83.667969 84.667969 83.773438 84.941406 83.945312 C 85.21875 84.082031 85.285156 84.390625 85.148438 84.667969 C 84.976562 84.941406 85.183594 84.875 85.5625 84.53125 C 85.941406 84.21875 86.351562 83.945312 86.457031 83.945312 C 86.871094 83.945312 86.695312 84.910156 86.285156 85.082031 C 86.042969 85.148438 86.148438 85.183594 86.523438 85.113281 C 87.074219 85.011719 90.652344 85.664062 92.476562 86.214844 C 93.335938 86.457031 92.648438 87.214844 91.308594 87.488281 C 89.449219 87.867188 81.226562 88.347656 75.964844 88.382812 L 71.558594 88.417969 L 71.492188 87.453125 C 71.285156 84.253906 71.320312 83.257812 71.695312 83.257812 C 71.902344 83.292969 73.3125 83.496094 74.828125 83.773438 C 78.304688 84.390625 80.882812 84.425781 83.121094 83.808594 C 84.910156 83.324219 90.894531 79.953125 91.136719 79.300781 C 91.617188 78.027344 91.6875 77.957031 91.789062 78.714844 C 91.890625 79.371094 91.996094 79.4375 92.410156 79.09375 Z M 92.410156 79.09375 "/>
</g>
</svg>
